<?xml version="1.0" encoding="UTF-8" standalone="no"?>
<!DOCTYPE svg PUBLIC "-//W3C//DTD SVG 1.1//EN" "http://www.w3.org/Graphics/SVG/1.1/DTD/svg11.dtd">
<svg version="1.1" xmlns="http://www.w3.org/2000/svg" xmlns:xlink="http://www.w3.org/1999/xlink" preserveAspectRatio="xMidYMid meet" viewBox="0 0 640 640" width="320" height="320"><defs><path d="M211.99 489.63L211.62 489.13L215.61 486.26L218.64 483.44L219 483.82L219.53 483.44L222.57 487.65L225.28 490.57L224.91 490.91L266.26 548.33L291.53 524.82L291.45 524.72L292.96 523.49L298.25 518.56L298.57 518.9L298.99 518.56L304.29 525.04L304.89 525.69L304.85 525.73L509.52 776.26L501.97 782.42L297.7 532.38L265.55 562.3L264.7 561.38L264.01 561.88L260.06 556.4L258.92 555.17L259.07 555.02L217.72 497.6L159.65 551.64L158.9 550.83L157.9 551.64L-7.42 349.28L0.13 343.12L159.63 538.36L211.99 489.63ZM512.03 486.97L511.48 487.47L668.26 679.38L660.72 685.54L504.23 493.99L422.93 567.15L416.41 559.91L417.29 559.12L265.39 373.18L206.29 428.18L205.33 427.15L204.08 428.18L-24.3 148.63L-16.75 142.47L206 415.14L259.21 365.62L258.92 365.26L264.46 360.74L265.28 359.97L265.33 360.03L266.46 359.1L424.54 552.6L498.06 486.44L497.61 485.89L505.16 479.73L505.31 479.91L505.51 479.73L512.03 486.97ZM345.33 92.03L345.96 92.66L346.63 92.03L665.49 429.49L659 435.62L345.79 104.14L210.54 237.84L210.24 237.54L209.92 237.84L-31.93 -18.11L-25.44 -24.25L210.44 225.38L345.33 92.03Z" id="dbPqbvKvO"></path><path d="M557.22 407.83L555.68 406.4L555.68 406.41L555.64 406.37L550.08 401.21L550.47 400.79L523.75 371.97L448.76 451.44L449.65 452.4L442.5 459.02L387.76 399.98L-7.77 767.3L-14.4 760.16L388.33 386.16L394.96 393.3L394.9 393.35L442.12 444.28L522.17 359.44L523.44 360.64L525.1 359.1L557.11 393.62L657.53 285.32L664.68 291.95L557.22 407.83ZM418.04 336.65L417.1 335.8L416.23 336.65L318.3 236.3L-76.79 603.2L-83.42 596.06L311.5 229.32L311.05 228.86L318.02 222.06L318.64 222.69L319.31 222.06L325.94 229.2L325.44 229.66L416.91 323.41L657.47 58.7L664.68 65.25L418.04 336.65ZM431.45 90.71L464.01 125.26L588.94 -7.27L596.03 -0.59L463.66 139.84L456.57 133.15L457.32 132.36L424.75 97.81L323.06 205.69L322.34 205.01L318.85 208.3L78.24 -46.94L85.33 -53.62L319.72 195.02L418.06 90.71L418.04 90.69L418.31 90.44L424.37 84.01L424.75 84.37L425.13 84.01L431.19 90.44L431.46 90.69L431.45 90.71Z" id="k4dHWQTDbr"></path></defs><g><g><g><use xlink:href="#dbPqbvKvO" opacity="1" fill="#db2a39" fill-opacity="0.26"></use><g><use xlink:href="#dbPqbvKvO" opacity="1" fill-opacity="0" stroke="#db2a39" stroke-width="1" stroke-opacity="0.26"></use></g></g><g><use xlink:href="#k4dHWQTDbr" opacity="1" fill="#6cc551" fill-opacity="0.25"></use><g><use xlink:href="#k4dHWQTDbr" opacity="1" fill-opacity="0" stroke="#6cc551" stroke-width="1" stroke-opacity="0.25"></use></g></g></g></g></svg>